<?xml version="1.0" encoding="UTF-8"?> <svg xmlns="http://www.w3.org/2000/svg" xmlns:xlink="http://www.w3.org/1999/xlink" id="Warstwa_2" viewBox="0 0 345.14 77.62"><defs><style>.cls-1{fill:#1f2837;}.cls-2{fill:url(#Gradient_bez_nazwy_17);}</style><linearGradient id="Gradient_bez_nazwy_17" x1="27.75" y1="0" x2="27.75" y2="55.34" gradientUnits="userSpaceOnUse"><stop offset="0" stop-color="#e30613"></stop><stop offset="1" stop-color="#ae0f0a"></stop></linearGradient></defs><g id="Warstwa_1-2"><path class="cls-1" d="m72.92,23.47c1.61,0,2.93.01,3.93.03s2.07.07,3.2.15l-3.3,7.75c-.67-.04-1.3-.07-1.88-.09-.59-.02-1.15-.03-1.68-.03-1.26,0-2.3.09-3.13.28-.83.18-1.51.5-2.05.97-.53.46-.97,1.08-1.31,1.85-.33.77-.64,1.76-.91,2.97l-3.9,17.98h-10.7l4.04-18.59c.59-2.7,1.38-4.91,2.39-6.63,1.01-1.72,2.25-3.07,3.73-4.06s3.17-1.66,5.08-2.03,4.07-.54,6.49-.54Z"></path><path class="cls-1" d="m98.69,21.72c4.89,0,8.61.9,11.17,2.69s3.83,4.81,3.83,9.05c0,.89-.07,1.83-.2,2.81s-.31,2.03-.54,3.12c-.58,2.87-1.38,5.3-2.39,7.3-1.01,2-2.31,3.64-3.9,4.93-1.59,1.29-3.48,2.23-5.65,2.81-2.18.59-4.7.88-7.57.88-4.93,0-8.67-.9-11.2-2.69-2.54-1.8-3.8-4.81-3.8-9.05,0-.89.06-1.83.17-2.81.12-.99.28-2.03.51-3.12.58-2.82,1.39-5.25,2.42-7.27,1.03-2.02,2.34-3.67,3.93-4.96,1.59-1.29,3.48-2.23,5.65-2.81s4.7-.88,7.57-.88Zm-4.31,26.04c1.21,0,2.23-.13,3.06-.39.83-.26,1.53-.71,2.12-1.34.59-.62,1.09-1.46,1.51-2.51.43-1.05.82-2.38,1.18-4,.53-2.34.81-4.2.81-5.57,0-1.86-.45-3.1-1.35-3.73-.9-.62-2.24-.94-4.04-.94-1.21,0-2.23.13-3.06.39-.83.27-1.54.71-2.12,1.34-.59.63-1.08,1.46-1.48,2.51s-.78,2.36-1.14,3.93c-.54,2.42-.81,4.3-.81,5.63,0,1.82.44,3.05,1.32,3.7.87.65,2.2.97,4,.97Z"></path><path class="cls-1" d="m152.51,55.33l6.05-27.86-11.98,15.8h-9.01l-5.58-16.23-6.12,28.28h-10.36l9.35-43.12h11.3l7.47,22.23,16.89-22.23h11.64l-9.29,43.12h-10.36Z"></path><path class="cls-1" d="m181.57,43.21v.97c.05,1.49.55,2.59,1.52,3.27.96.69,2.61,1.03,4.94,1.03,2.47,0,4.62-.02,6.46-.06,1.84-.04,3.77-.12,5.79-.24l-3.03,6.96c-1.39.12-3.06.2-5.01.24-1.95.04-4.03.06-6.22.06-2.78,0-5.11-.28-6.97-.85s-3.34-1.35-4.44-2.36-1.88-2.21-2.36-3.6c-.47-1.4-.71-2.9-.71-4.51,0-1.69.2-3.45.61-5.27.68-3.35,1.66-6.07,2.96-8.18,1.3-2.1,2.81-3.74,4.54-4.93s3.62-2,5.69-2.42,4.22-.64,6.46-.64c4.58,0,7.97.77,10.19,2.3,2.22,1.53,3.33,3.73,3.33,6.6-.05.52-.1,1.06-.17,1.6-.07.54-.17,1.1-.3,1.66-.76,3.07-2.43,5.23-5.01,6.48-2.58,1.25-6.32,1.88-11.2,1.88h-7.07Zm9.42-13.69c-2.29,0-4.02.51-5.18,1.54-1.17,1.03-2.11,2.86-2.82,5.48h5.85c1.12,0,2.05-.04,2.79-.12.74-.08,1.36-.23,1.85-.45s.88-.5,1.15-.85.49-.78.67-1.3c.18-.48.27-1.01.27-1.57,0-.85-.34-1.52-1.01-2-.68-.48-1.87-.73-3.57-.73Z"></path><path class="cls-1" d="m225.78,22.14c2.06,0,3.75.21,5.05.64,1.3.42,2.35.98,3.16,1.66l3.16-14.65h10.7l-8.41,38.82c-.27,1.21-.61,2.21-1.01,3s-.94,1.42-1.61,1.91c-.68.48-1.49.84-2.46,1.06s-2.1.39-3.4.51c-.94.08-2.07.14-3.39.18-1.33.04-2.44.06-3.33.06-2.56,0-4.87-.2-6.93-.61s-3.83-1.08-5.32-2.03c-1.48-.95-2.61-2.2-3.39-3.75-.79-1.55-1.18-3.51-1.18-5.85,0-.85.06-1.75.17-2.69.12-.95.28-1.97.51-3.06.63-3.03,1.51-5.52,2.65-7.48,1.15-1.96,2.48-3.51,4.01-4.66s3.22-1.95,5.08-2.39,3.84-.67,5.95-.67Zm-1.48,25.62c.63,0,1.38-.03,2.25-.09.87-.06,1.69-.13,2.45-.21l2.29-10.66c.22-1.01.34-1.92.34-2.72,0-1.69-.48-2.85-1.45-3.46-.96-.61-2.3-.91-4.01-.91-1.07,0-1.99.12-2.76.33-.76.23-1.43.63-2.02,1.22-.58.59-1.08,1.38-1.51,2.39-.42,1.01-.82,2.3-1.18,3.87-.45,1.98-.68,3.67-.68,5.08,0,2.02.54,3.38,1.62,4.09,1.07.71,2.62,1.06,4.64,1.06Z"></path><path class="cls-1" d="m250.74,23.66h10.7l-6.86,31.67h-10.7l6.86-31.67Zm7.54-13.32c1.75,0,3.08.27,4.01.82.92.54,1.38,1.46,1.38,2.75,0,2.14-.61,3.62-1.82,4.42s-2.92,1.21-5.12,1.21c-3.59,0-5.38-1.19-5.38-3.57,0-1.09.17-2,.5-2.73.34-.73.82-1.3,1.45-1.73.63-.42,1.36-.73,2.19-.91.83-.18,1.76-.27,2.79-.27Z"></path><path class="cls-1" d="m307.33,33.35c-.81,4.16-1.92,7.64-3.33,10.44-1.41,2.81-3.15,5.07-5.21,6.78s-4.46,2.94-7.2,3.66c-2.74.73-5.86,1.09-9.35,1.09-6.15,0-10.79-1.21-13.93-3.63-3.14-2.42-4.71-6.36-4.71-11.81,0-1.17.07-2.42.2-3.75.14-1.33.36-2.72.68-4.18.81-4.16,1.92-7.64,3.33-10.45s3.14-5.06,5.18-6.78c2.04-1.72,4.43-2.94,7.16-3.67s5.86-1.09,9.35-1.09c6.14,0,10.8,1.21,13.96,3.63,3.16,2.43,4.74,6.38,4.74,11.87,0,1.17-.08,2.41-.24,3.72-.16,1.32-.37,2.7-.64,4.15Zm-24.22,13.63c1.89,0,3.5-.18,4.84-.54,1.35-.37,2.51-1.05,3.5-2.06.98-1.01,1.83-2.42,2.52-4.24s1.34-4.18,1.92-7.08c.31-1.53.55-2.93.71-4.18.16-1.25.24-2.38.24-3.39,0-1.45-.17-2.63-.5-3.54s-.84-1.63-1.51-2.18c-.68-.54-1.51-.92-2.52-1.12s-2.19-.3-3.54-.3c-1.88,0-3.5.18-4.84.54s-2.51,1.05-3.5,2.06c-.99,1.01-1.84,2.42-2.56,4.24-.72,1.82-1.37,4.18-1.95,7.09-.31,1.53-.55,2.93-.71,4.18s-.24,2.36-.24,3.33c0,1.45.17,2.64.5,3.57.34.93.84,1.66,1.51,2.21.68.54,1.53.92,2.56,1.12,1.03.2,2.22.3,3.57.3Z"></path><path class="cls-1" d="m318.63,55.33h-10.7l4.31-19.74c.49-2.38,1.2-4.39,2.12-6.03.92-1.63,2.11-2.97,3.57-4,1.45-1.03,3.22-1.77,5.28-2.21,2.06-.44,4.48-.67,7.26-.67,4.8,0,8.44.83,10.93,2.48,2.49,1.65,3.74,4.2,3.74,7.63,0,.56-.05,1.15-.14,1.76s-.2,1.25-.34,1.94l-4.04,18.83h-10.7l4.17-19.25c.09-.4.16-.78.2-1.12s.07-.66.07-.94c0-1.25-.39-2.15-1.18-2.7-.78-.54-1.94-.82-3.47-.82-1.17,0-2.13.09-2.89.27s-1.4.48-1.92.91c-.52.42-.94.99-1.28,1.69-.33.71-.62,1.6-.84,2.69l-4.17,19.25Z"></path><path class="cls-2" d="m51,4.96c-3.43-3.31-8.46-4.96-15.07-4.96H10.65c-1.34,8.06,5.18,15.66,13.42,15.66h2.86s1.45-8.8,1.45-8.8h8.68l-1.45,8.8h8.8l-1.43,8.68h-8.8l-1.45,8.8h-8.68l1.45-8.8h-6.08c-7.51,0-14.3,5.22-15.52,12.56L0,55.34h13.79l2.2-10.06c.57-3.36,3.08-5.76,6.52-5.76h8.25c7.38,0,13.18-1.81,17.42-5.44,4.23-3.63,6.64-8.81,7.23-15.55.49-5.74-.97-10.26-4.41-13.57Z"></path><path class="cls-1" d="m3.29,65.5l-.83,4.25,4.76-4.25h1.69l-5.21,4.73,3.87,4.98h-1.8l-3.49-4.5-.87,4.5H0l1.88-9.7h1.4Z"></path><path class="cls-1" d="m10.89,65.08h1.4l-1.96,10.13h-1.4l1.96-10.13Z"></path><path class="cls-1" d="m13.95,68.16h1.4l-1.36,7.05h-1.4l1.36-7.05Zm.89-1.19c-.51,0-.76-.23-.76-.68,0-.41.1-.69.3-.84.2-.15.45-.22.74-.22.22,0,.4.05.54.14.15.09.22.27.22.54,0,.37-.09.64-.25.81s-.43.25-.78.25Z"></path><path class="cls-1" d="m16.26,75.21l.89-4.57c.09-.5.23-.92.41-1.26.19-.34.42-.62.7-.83s.62-.37,1-.46c.38-.1.83-.15,1.34-.15.84,0,1.51.18,2,.55s.73.91.73,1.65c0,.1,0,.21-.02.33-.01.12-.03.24-.05.37l-.84,4.37h-1.4l.84-4.37c.02-.11.03-.22.05-.32.01-.1.02-.19.02-.26,0-.41-.12-.7-.35-.87-.23-.17-.56-.25-1-.25-.34,0-.62.03-.86.08s-.43.14-.59.26-.28.3-.38.52c-.1.22-.18.51-.24.85l-.85,4.36h-1.4Z"></path><path class="cls-1" d="m26.05,68.16h1.4l-1.36,7.05h-1.4l1.36-7.05Zm.89-1.19c-.51,0-.76-.23-.76-.68,0-.41.1-.69.3-.84.2-.15.45-.22.74-.22.22,0,.4.05.54.14.15.09.22.27.22.54,0,.37-.09.64-.25.81s-.43.25-.78.25Z"></path><path class="cls-1" d="m31.74,71.42l3.03,3.79h-1.67l-2.68-3.4-.66,3.4h-1.4l1.96-10.13h1.4l-1.13,5.85,3.35-2.77h1.78l-3.98,3.26Z"></path><path class="cls-1" d="m39.04,70.68c.44,0,.84.04,1.22.13s.66.23.84.44l.06-.27c.05-.25.08-.46.08-.65,0-.36-.12-.61-.35-.77-.23-.16-.64-.24-1.22-.24h-1.17c-.17,0-.35,0-.53,0s-.41.01-.67.02l.45-1.19c.31-.02.64-.03,1.01-.03h1.04c.5,0,.92.05,1.27.14.35.09.63.22.84.4.22.18.38.39.48.65.1.25.15.55.15.87,0,.13-.01.26-.03.41s-.04.3-.07.45l-.57,3.02c-.05.21-.1.38-.17.53-.07.14-.16.25-.26.34s-.24.15-.39.19c-.16.04-.33.07-.53.1-.12.02-.25.03-.4.04-.15,0-.29.02-.44.03-.15.01-.3.02-.44.02-.15,0-.28,0-.39,0-.94,0-1.63-.15-2.07-.44s-.67-.77-.67-1.41c0-.13,0-.26.02-.39.01-.14.04-.28.07-.44.14-.61.43-1.09.89-1.44.46-.35,1.11-.52,1.97-.52Zm-.04,3.52c.29,0,.56-.01.81-.03s.49-.04.73-.07l.19-.94c.03-.15.04-.28.04-.41,0-.35-.13-.6-.39-.74-.26-.14-.66-.21-1.22-.21s-.94.08-1.2.22c-.26.15-.43.44-.51.85-.03.16-.04.31-.04.44,0,.37.13.61.39.72.26.11.66.17,1.19.17Z"></path><path class="cls-1" d="m54.04,75.18c-.17.01-.31.02-.44.02-.13,0-.25,0-.37,0h-.81c-.71,0-1.31-.07-1.79-.22s-.88-.35-1.18-.63-.52-.61-.65-1.01c-.13-.4-.2-.86-.2-1.36,0-.26.02-.54.05-.84.03-.3.08-.61.14-.94.18-.94.42-1.71.72-2.32.3-.61.67-1.09,1.1-1.45.44-.35.94-.6,1.51-.74.57-.14,1.21-.21,1.92-.21h.44c.14,0,.28,0,.42,0s.31.01.48.02c.17,0,.37.01.6.02l-.49,1.28c-.31-.02-.56-.03-.77-.03-.21,0-.42,0-.65,0-.61,0-1.12.05-1.54.14-.42.1-.77.27-1.06.53-.29.26-.52.62-.7,1.08-.18.46-.34,1.06-.49,1.8-.06.34-.11.64-.15.92-.04.28-.06.53-.06.76,0,.37.05.68.14.93.1.24.25.44.46.59s.48.25.81.31c.33.06.73.1,1.19.1h.51c.15,0,.3,0,.44,0s.29-.01.43-.01c.14,0,.3,0,.47,0l-.49,1.28Z"></path><path class="cls-1" d="m59.49,65.08l-.67,3.41c.18-.18.43-.32.74-.41.31-.09.7-.14,1.17-.14.35,0,.67.04.97.12.3.08.56.21.78.39.22.18.4.4.52.67.13.27.19.6.19.97,0,.24-.03.48-.08.74l-.84,4.37h-1.4l.84-4.37c.02-.11.03-.21.05-.31.01-.09.02-.19.02-.28,0-.42-.12-.71-.35-.87s-.56-.25-1-.25c-.34,0-.62.03-.86.08s-.43.14-.59.26-.28.3-.38.52c-.1.22-.18.51-.24.85l-.85,4.36h-1.4l1.97-10.13h1.4Z"></path><path class="cls-1" d="m65.9,68.16h1.4l-1.36,7.05h-1.4l1.36-7.05Zm.89-1.19c-.51,0-.76-.23-.76-.68,0-.41.1-.69.3-.84.2-.15.45-.22.74-.22.22,0,.4.05.54.14.15.09.22.27.22.54,0,.37-.09.64-.25.81s-.43.25-.78.25Z"></path><path class="cls-1" d="m72.39,69.32c-.33,0-.6.02-.82.07-.22.05-.4.13-.55.27-.15.13-.27.31-.36.54-.09.23-.17.52-.23.87l-.8,4.14h-1.4l.82-4.27c.11-.59.26-1.07.46-1.44.2-.37.43-.65.72-.86.28-.2.61-.34,1-.41.38-.07.82-.1,1.31-.1.21,0,.39,0,.53,0s.32.02.53.04l-.45,1.17c-.15,0-.28-.02-.39-.02-.12,0-.23,0-.34,0Z"></path><path class="cls-1" d="m81.41,68.16l-.89,4.57c-.1.5-.24.92-.41,1.26s-.41.62-.69.83c-.28.21-.61.37-1,.46-.39.1-.83.15-1.33.15-.83,0-1.48-.18-1.96-.54-.48-.36-.72-.91-.72-1.64,0-.11,0-.23.02-.36.01-.13.03-.25.05-.35l.84-4.37h1.4l-.84,4.37c-.05.25-.07.46-.07.6,0,.41.11.69.33.86.22.17.55.25.99.25.33,0,.61-.03.84-.08.23-.05.43-.14.58-.26.15-.13.28-.3.37-.52.09-.22.18-.51.24-.85l.84-4.36h1.4Z"></path><path class="cls-1" d="m86.49,69.32c-.33,0-.6.02-.82.07-.22.05-.4.13-.55.27-.15.13-.27.31-.36.54-.09.23-.17.52-.23.87l-.8,4.14h-1.4l.82-4.27c.11-.59.26-1.07.46-1.44.2-.37.43-.65.72-.86.28-.2.61-.34,1-.41.38-.07.82-.1,1.31-.1.21,0,.39,0,.53,0s.32.02.53.04l-.45,1.17c-.15,0-.28-.02-.39-.02-.12,0-.23,0-.34,0Z"></path><path class="cls-1" d="m93.06,74.39c-.2.19-.46.33-.77.43-.31.1-.7.15-1.18.15-.83,0-1.5-.2-1.98-.59-.49-.4-.73-1.04-.73-1.93,0-.38.05-.8.14-1.24.12-.59.28-1.09.48-1.5.2-.41.45-.75.75-1.01.3-.26.65-.45,1.06-.56.41-.12.88-.18,1.42-.18.96,0,1.68.19,2.17.57s.72,1,.72,1.86c0,.38-.05.79-.14,1.24l-.57,2.94c-.11.54-.25,1-.43,1.38-.18.38-.4.7-.68.95s-.61.44-1.01.56c-.4.12-.86.18-1.38.18h-1.32c-.2,0-.39,0-.59,0-.2,0-.42-.01-.67-.02l.46-1.21c.33.02.67.03,1.02.04.35,0,.73.01,1.12.01.61,0,1.08-.14,1.41-.41s.55-.74.66-1.4l.04-.23Zm-.91-5.28c-.33,0-.61.03-.85.09-.24.06-.45.16-.62.31-.17.15-.32.35-.43.61s-.21.59-.29.99c-.05.25-.08.47-.11.67-.03.21-.04.39-.04.57,0,.54.13.92.39,1.12.26.2.66.31,1.21.31.33,0,.61-.03.84-.08.23-.06.43-.16.61-.31s.32-.36.43-.62c.11-.26.21-.61.29-1.04.05-.25.08-.48.11-.69.03-.2.04-.39.04-.56,0-.51-.12-.87-.37-1.07-.24-.21-.64-.31-1.2-.31Z"></path><path class="cls-1" d="m97.94,68.16h1.4l-1.36,7.05h-1.4l1.36-7.05Zm.89-1.19c-.51,0-.76-.23-.76-.68,0-.41.1-.69.3-.84.2-.15.45-.22.74-.22.22,0,.4.05.54.14.15.09.22.27.22.54,0,.37-.09.64-.25.81s-.43.25-.78.25Z"></path><path class="cls-1" d="m101.61,68.16h1.4l-1.36,7.05h-1.4l1.36-7.05Zm.89-1.19c-.51,0-.76-.23-.76-.68,0-.41.1-.69.3-.84.2-.15.45-.22.74-.22.22,0,.4.05.54.14.15.09.22.27.22.54,0,.37-.09.64-.25.81s-.43.25-.78.25Z"></path><path class="cls-1" d="m110.33,71.42l-.74,3.79h-1.4l1.88-9.7h3.03c1.04,0,1.86.19,2.43.57.58.38.87,1,.87,1.84,0,.11,0,.22-.02.35-.02.12-.03.25-.05.38-.09.54-.25,1-.48,1.35-.23.36-.51.65-.85.86s-.73.36-1.17.44-.92.12-1.44.12h-2.06Zm4.57-2.77c.05-.25.07-.46.07-.61,0-.47-.15-.8-.45-.98-.3-.18-.76-.27-1.36-.27h-1.92l-.65,3.35h1.95c.4,0,.74-.03,1.02-.08.28-.05.51-.13.69-.24.18-.11.33-.27.43-.46s.18-.43.24-.71Z"></path><path class="cls-1" d="m119.08,65.08h1.4l-1.96,10.13h-1.4l1.96-10.13Z"></path><path class="cls-1" d="m123.92,70.68c.44,0,.84.04,1.22.13s.66.23.84.44l.06-.27c.05-.25.08-.46.08-.65,0-.36-.12-.61-.35-.77-.23-.16-.64-.24-1.22-.24h-1.17c-.17,0-.35,0-.53,0s-.41.01-.67.02l.45-1.19c.31-.02.64-.03,1.01-.03h1.04c.5,0,.92.05,1.27.14.35.09.63.22.84.4.22.18.38.39.48.65.1.25.15.55.15.87,0,.13-.01.26-.03.41s-.04.3-.07.45l-.57,3.02c-.05.21-.1.38-.17.53-.07.14-.16.25-.26.34s-.24.15-.39.19c-.16.04-.33.07-.53.1-.12.02-.25.03-.4.04-.15,0-.29.02-.44.03-.15.01-.3.02-.44.02-.15,0-.28,0-.39,0-.94,0-1.63-.15-2.07-.44s-.67-.77-.67-1.41c0-.13,0-.26.02-.39.01-.14.04-.28.07-.44.14-.61.43-1.09.89-1.44.46-.35,1.11-.52,1.97-.52Zm-.04,3.52c.29,0,.56-.01.81-.03s.49-.04.73-.07l.19-.94c.03-.15.04-.28.04-.41,0-.35-.13-.6-.39-.74-.26-.14-.66-.21-1.22-.21s-.94.08-1.2.22c-.26.15-.43.44-.51.85-.03.16-.04.31-.04.44,0,.37.13.61.39.72.26.11.66.17,1.19.17Z"></path><path class="cls-1" d="m132.49,71.14c.65.2,1.12.44,1.39.7s.41.62.41,1.06c0,.08,0,.18-.02.29-.01.11-.03.22-.05.33-.1.54-.39.97-.87,1.27s-1.23.45-2.25.45h-1.33c-.2,0-.41,0-.63,0s-.44-.01-.67-.02l.44-1.19c.31.01.56.02.74.02s.35,0,.5,0h.99c.56,0,.98-.05,1.25-.14.27-.09.43-.29.47-.59.01-.05.02-.08.02-.11v-.09c0-.18-.06-.33-.17-.44-.11-.11-.3-.2-.57-.27l-1.32-.38c-.46-.13-.81-.32-1.07-.56-.26-.25-.39-.61-.39-1.08,0-.08,0-.17.01-.26.01-.1.02-.19.04-.29.1-.54.38-.95.83-1.25.45-.3,1.13-.45,2.03-.45h.74c.22,0,.43,0,.63,0,.2,0,.4.01.61.02.2.01.43.02.67.03l-.44,1.17c-.3,0-.55-.02-.76-.02-.21,0-.4,0-.57-.01s-.33,0-.49,0h-.53c-.46,0-.8.05-1,.14-.21.09-.34.26-.4.52-.02.07-.03.16-.03.26,0,.16.05.27.15.35.1.08.25.16.46.22l1.17.34Z"></path><path class="cls-1" d="m139.54,75.21h-1.25c-.76,0-1.31-.16-1.65-.48s-.5-.76-.5-1.34c0-.13,0-.26.03-.4.02-.14.04-.29.07-.44l1.2-6.16,1.43-.15-.37,1.92h2.32l-.45,1.19h-2.1l-.65,3.37c-.05.25-.07.45-.07.59,0,.27.07.47.21.58.14.11.38.17.72.17h1.51l-.44,1.16Z"></path><path class="cls-1" d="m146.12,74.39c-.4.38-.99.57-1.77.57s-1.42-.18-1.87-.54-.67-.89-.67-1.6c0-.08,0-.19.02-.33.01-.14.03-.28.06-.42l.75-3.91h1.4l-.75,3.91c-.04.25-.07.46-.07.6,0,.41.11.69.33.86.22.17.55.25.99.25.33,0,.61-.03.84-.08.23-.05.42-.14.58-.26s.28-.3.37-.52c.1-.22.18-.51.24-.85l.75-3.9h1.4l-1.23,6.34c-.11.55-.25,1.03-.43,1.42-.18.39-.41.72-.69.97-.28.25-.62.44-1.02.55-.39.12-.86.18-1.38.18h-1.32c-.2,0-.39,0-.59,0-.2,0-.42-.01-.67-.02l.46-1.21c.33.02.66.03,1.01.04.34,0,.71.01,1.1.01.61,0,1.07-.13,1.38-.4s.55-.74.7-1.41l.05-.23Z"></path><path class="cls-1" d="m151.6,71.47c-.05.25-.08.48-.11.69-.03.2-.04.39-.04.55,0,.54.13.9.4,1.08.27.18.68.27,1.25.27h.71c.13,0,.27,0,.44,0,.17,0,.36-.01.59-.02l-.45,1.17c-.09,0-.2,0-.31,0-.12,0-.23,0-.35.01-.11,0-.22,0-.33,0h-.27c-.56,0-1.04-.06-1.43-.17-.39-.11-.71-.26-.95-.47-.25-.21-.42-.46-.53-.76-.11-.31-.16-.66-.16-1.06,0-.2.01-.41.04-.63.03-.22.06-.46.11-.7.14-.68.32-1.24.55-1.67.23-.43.51-.77.84-1.02.34-.25.73-.41,1.19-.5.46-.09.98-.13,1.58-.13.21,0,.44,0,.69,0s.47.01.65.02l-.45,1.17c-.15-.01-.32-.02-.52-.02-.21,0-.39,0-.56,0-.42,0-.77.03-1.05.09s-.52.17-.71.33c-.19.16-.35.38-.46.66-.12.28-.22.65-.32,1.09Z"></path><path class="cls-1" d="m157.72,68.16h5.28l-.14,1.04-4.63,4.83h4.1l-.45,1.19h-5.55l.14-1.04,4.63-4.83h-3.83l.45-1.19Z"></path><path class="cls-1" d="m163.98,75.21l.89-4.57c.09-.5.23-.92.41-1.26.19-.34.42-.62.7-.83s.62-.37,1-.46c.38-.1.83-.15,1.34-.15.84,0,1.51.18,2,.55s.73.91.73,1.65c0,.1,0,.21-.02.33-.01.12-.03.24-.05.37l-.84,4.37h-1.4l.84-4.37c.02-.11.03-.22.05-.32.01-.1.02-.19.02-.26,0-.41-.12-.7-.35-.87-.23-.17-.56-.25-1-.25-.34,0-.62.03-.86.08s-.43.14-.59.26-.28.3-.38.52c-.1.22-.18.51-.24.85l-.85,4.36h-1.4Z"></path><path class="cls-1" d="m175.75,74.06h.7c.2,0,.38,0,.55-.01.17-.01.35-.02.52-.02.17,0,.36-.02.57-.04l-.45,1.17c-.31.03-.61.05-.91.05-.3.01-.67.02-1.1.02-.54,0-.98-.06-1.34-.19-.36-.12-.65-.3-.87-.52-.22-.22-.38-.49-.47-.79-.1-.3-.14-.64-.14-1,0-.39.05-.83.15-1.31.15-.73.35-1.32.6-1.77.25-.45.54-.81.87-1.06.33-.25.68-.43,1.06-.52s.77-.14,1.16-.14c.9,0,1.55.17,1.95.51s.61.78.61,1.33c0,.21-.03.43-.08.66-.07.31-.18.58-.32.81-.14.23-.34.42-.59.57-.25.15-.56.26-.93.34-.37.08-.81.12-1.32.12h-1.77c0,.06-.02.13-.02.2s0,.14,0,.2c0,.46.12.81.36,1.04.23.23.64.34,1.21.34Zm.82-4.99c-.31,0-.58.04-.8.11-.23.07-.43.19-.6.35s-.32.38-.44.65c-.12.27-.23.6-.32,1h1.58c.32,0,.58-.01.79-.04s.38-.07.51-.14c.13-.06.23-.15.31-.26.07-.11.13-.24.18-.4.05-.17.08-.34.08-.49,0-.25-.09-.45-.29-.59-.19-.13-.52-.2-1-.2Z"></path><path class="cls-1" d="m178.21,76.4c.11.01.21.02.29.02h.27c.24,0,.45-.02.62-.07.17-.05.31-.13.42-.25.11-.12.21-.29.29-.49s.15-.47.21-.78l1.28-6.67h1.4l-1.32,6.86c-.1.52-.24.94-.41,1.28s-.38.6-.62.8c-.24.19-.51.33-.82.4-.31.07-.65.11-1.04.11h-.61c-.15,0-.28,0-.41-.02l.45-1.19Zm4.27-9.43c-.51,0-.76-.23-.76-.68,0-.41.1-.69.3-.84.2-.15.45-.22.74-.22.22,0,.4.05.54.14.15.09.22.27.22.54,0,.37-.09.64-.25.81s-.43.25-.78.25Z"></path><path class="cls-1" d="m189.34,68.16h1.4l-1.36,7.05h-1.4l1.36-7.05Zm.89-1.19c-.51,0-.76-.23-.76-.68,0-.41.1-.69.3-.84.2-.15.45-.22.74-.22.22,0,.4.05.54.14.15.09.22.27.22.54,0,.37-.09.64-.25.81s-.43.25-.78.25Z"></path><path class="cls-1" d="m199.34,65.5l1.96,5.66,4.1-5.66h1.49l-1.9,9.7h-1.4l1.43-7.31-3.27,4.54h-1.31l-1.65-4.73-1.46,7.5h-1.4l1.88-9.7h1.53Z"></path><path class="cls-1" d="m210.8,74.06h.7c.2,0,.38,0,.55-.01.17-.01.35-.02.52-.02.17,0,.36-.02.57-.04l-.45,1.17c-.31.03-.61.05-.91.05-.3.01-.67.02-1.1.02-.54,0-.98-.06-1.34-.19-.36-.12-.65-.3-.87-.52-.22-.22-.38-.49-.47-.79-.1-.3-.14-.64-.14-1,0-.39.05-.83.15-1.31.15-.73.35-1.32.6-1.77.25-.45.54-.81.87-1.06.33-.25.68-.43,1.06-.52s.77-.14,1.16-.14c.9,0,1.55.17,1.95.51s.61.78.61,1.33c0,.21-.03.43-.08.66-.07.31-.18.58-.32.81-.14.23-.34.42-.59.57-.25.15-.56.26-.93.34-.37.08-.81.12-1.32.12h-1.77c0,.06-.02.13-.02.2s0,.14,0,.2c0,.46.12.81.36,1.04.23.23.64.34,1.21.34Zm.82-4.99c-.31,0-.58.04-.8.11-.23.07-.43.19-.6.35s-.32.38-.44.65c-.12.27-.23.6-.32,1h1.58c.32,0,.58-.01.79-.04s.38-.07.51-.14c.13-.06.23-.15.31-.26.07-.11.13-.24.18-.4.05-.17.08-.34.08-.49,0-.25-.09-.45-.29-.59-.19-.13-.52-.2-1-.2Z"></path><path class="cls-1" d="m219.37,67.94c.53,0,.95.07,1.27.2s.56.32.74.55l.69-3.61h1.4l-1.75,8.99c-.05.21-.1.38-.16.53-.06.14-.15.26-.26.35-.11.09-.24.16-.41.21-.17.05-.36.09-.6.12-.26.02-.52.03-.78.04-.26,0-.46.01-.59.01-.47,0-.91-.05-1.3-.13-.4-.09-.74-.24-1.02-.45-.28-.21-.5-.49-.66-.84-.16-.35-.24-.79-.24-1.31,0-.4.05-.83.14-1.28.13-.66.3-1.21.53-1.65.23-.44.49-.78.8-1.04s.64-.43,1.01-.53c.37-.1.77-.15,1.19-.15Zm1.61,2.52c0-.53-.15-.88-.44-1.07s-.69-.28-1.18-.28c-.3,0-.56.03-.78.1-.22.06-.42.18-.58.34-.16.17-.3.38-.41.66-.11.28-.22.63-.31,1.06-.05.25-.09.49-.11.69-.02.21-.04.4-.04.57,0,.33.04.6.13.8s.21.38.37.5c.16.12.35.21.58.25s.48.07.76.07c.17,0,.39,0,.65-.02.26-.02.5-.04.71-.08l.57-2.86c.02-.1.04-.22.05-.36.02-.14.03-.27.03-.38Z"></path><path class="cls-1" d="m228.62,74.39c-.4.38-.99.57-1.77.57s-1.42-.18-1.87-.54-.67-.89-.67-1.6c0-.08,0-.19.02-.33.01-.14.03-.28.06-.42l.75-3.91h1.4l-.75,3.91c-.04.25-.07.46-.07.6,0,.41.11.69.33.86.22.17.55.25.99.25.33,0,.61-.03.84-.08.23-.05.42-.14.58-.26s.28-.3.37-.52c.1-.22.18-.51.24-.85l.75-3.9h1.4l-1.23,6.34c-.11.55-.25,1.03-.43,1.42-.18.39-.41.72-.69.97-.28.25-.62.44-1.02.55-.39.12-.86.18-1.38.18h-1.32c-.2,0-.39,0-.59,0-.2,0-.42-.01-.67-.02l.46-1.21c.33.02.66.03,1.01.04.34,0,.71.01,1.1.01.61,0,1.07-.13,1.38-.4s.55-.74.7-1.41l.05-.23Z"></path><path class="cls-1" d="m234.1,71.47c-.05.25-.08.48-.11.69-.03.2-.04.39-.04.55,0,.54.13.9.4,1.08.27.18.68.27,1.25.27h.71c.13,0,.27,0,.44,0,.17,0,.36-.01.59-.02l-.45,1.17c-.09,0-.2,0-.31,0-.12,0-.23,0-.35.01-.11,0-.22,0-.33,0h-.27c-.56,0-1.04-.06-1.43-.17-.39-.11-.71-.26-.95-.47-.25-.21-.42-.46-.53-.76-.11-.31-.16-.66-.16-1.06,0-.2.01-.41.04-.63.03-.22.06-.46.11-.7.14-.68.32-1.24.55-1.67.23-.43.51-.77.84-1.02.34-.25.73-.41,1.19-.5.46-.09.98-.13,1.58-.13.21,0,.44,0,.69,0s.47.01.65.02l-.45,1.17c-.15-.01-.32-.02-.52-.02-.21,0-.39,0-.56,0-.42,0-.77.03-1.05.09s-.52.17-.71.33c-.19.16-.35.38-.46.66-.12.28-.22.65-.32,1.09Z"></path><path class="cls-1" d="m243.79,74.39c-.4.38-.99.57-1.77.57s-1.42-.18-1.87-.54-.67-.89-.67-1.6c0-.08,0-.19.02-.33.01-.14.03-.28.06-.42l.75-3.91h1.4l-.75,3.91c-.04.25-.07.46-.07.6,0,.41.11.69.33.86.22.17.55.25.99.25.33,0,.61-.03.84-.08.23-.05.42-.14.58-.26s.28-.3.37-.52c.1-.22.18-.51.24-.85l.75-3.9h1.4l-1.23,6.34c-.11.55-.25,1.03-.43,1.42-.18.39-.41.72-.69.97-.28.25-.62.44-1.02.55-.39.12-.86.18-1.38.18h-1.32c-.2,0-.39,0-.59,0-.2,0-.42-.01-.67-.02l.46-1.21c.33.02.66.03,1.01.04.34,0,.71.01,1.1.01.61,0,1.07-.13,1.38-.4s.55-.74.7-1.41l.05-.23Z"></path><path class="cls-1" d="m247.3,75.21l.89-4.57c.09-.5.23-.92.41-1.26.19-.34.42-.62.7-.83s.62-.37,1-.46c.38-.1.83-.15,1.34-.15.84,0,1.51.18,2,.55s.73.91.73,1.65c0,.1,0,.21-.02.33-.01.12-.03.24-.05.37l-.84,4.37h-1.4l.84-4.37c.02-.11.03-.22.05-.32.01-.1.02-.19.02-.26,0-.41-.12-.7-.35-.87-.23-.17-.56-.25-1-.25-.34,0-.62.03-.86.08s-.43.14-.59.26-.28.3-.38.52c-.1.22-.18.51-.24.85l-.85,4.36h-1.4Z"></path><path class="cls-1" d="m260.57,74.39c-.4.38-.99.57-1.77.57s-1.42-.18-1.87-.54-.67-.89-.67-1.6c0-.08,0-.19.02-.33.01-.14.03-.28.06-.42l.75-3.91h1.4l-.75,3.91c-.04.25-.07.46-.07.6,0,.41.11.69.33.86.22.17.55.25.99.25.33,0,.61-.03.84-.08.23-.05.42-.14.58-.26s.28-.3.37-.52c.1-.22.18-.51.24-.85l.75-3.9h1.4l-1.23,6.34c-.11.55-.25,1.03-.43,1.42-.18.39-.41.72-.69.97-.28.25-.62.44-1.02.55-.39.12-.86.18-1.38.18h-1.32c-.2,0-.39,0-.59,0-.2,0-.42-.01-.67-.02l.46-1.21c.33.02.66.03,1.01.04.34,0,.71.01,1.1.01.61,0,1.07-.13,1.38-.4s.55-.74.7-1.41l.05-.23Z"></path><path class="cls-1" d="m276.72,65.5l-.49,1.28h-4.84l-.54,2.79h4.74l-.49,1.28h-4.5l-.6,3.07h5.36l-.49,1.28h-6.52l1.88-9.7h6.49Z"></path><path class="cls-1" d="m280.73,71.14c.65.2,1.12.44,1.39.7s.41.62.41,1.06c0,.08,0,.18-.02.29-.01.11-.03.22-.05.33-.1.54-.39.97-.87,1.27s-1.23.45-2.25.45h-1.33c-.2,0-.41,0-.63,0s-.44-.01-.67-.02l.44-1.19c.31.01.56.02.74.02s.35,0,.5,0h.99c.56,0,.98-.05,1.25-.14.27-.09.43-.29.47-.59.01-.05.02-.08.02-.11v-.09c0-.18-.06-.33-.17-.44-.11-.11-.3-.2-.57-.27l-1.32-.38c-.46-.13-.81-.32-1.07-.56-.26-.25-.39-.61-.39-1.08,0-.08,0-.17.01-.26.01-.1.02-.19.04-.29.1-.54.38-.95.83-1.25.45-.3,1.13-.45,2.03-.45h.74c.22,0,.43,0,.63,0,.2,0,.4.01.61.02.2.01.43.02.67.03l-.44,1.17c-.3,0-.55-.02-.76-.02-.21,0-.4,0-.57-.01s-.33,0-.49,0h-.53c-.46,0-.8.05-1,.14-.21.09-.34.26-.4.52-.02.07-.03.16-.03.26,0,.16.05.27.15.35.1.08.25.16.46.22l1.17.34Z"></path><path class="cls-1" d="m287.78,75.21h-1.25c-.76,0-1.31-.16-1.65-.48s-.5-.76-.5-1.34c0-.13,0-.26.03-.4.02-.14.04-.29.07-.44l1.2-6.16,1.43-.15-.37,1.92h2.32l-.45,1.19h-2.1l-.65,3.37c-.05.25-.07.45-.07.59,0,.27.07.47.21.58.14.11.38.17.72.17h1.51l-.44,1.16Z"></path><path class="cls-1" d="m292.86,74.06h.7c.2,0,.38,0,.55-.01.17-.01.35-.02.52-.02.17,0,.36-.02.57-.04l-.45,1.17c-.31.03-.61.05-.91.05-.3.01-.67.02-1.1.02-.54,0-.98-.06-1.34-.19-.36-.12-.65-.3-.87-.52-.22-.22-.38-.49-.47-.79-.1-.3-.14-.64-.14-1,0-.39.05-.83.15-1.31.15-.73.35-1.32.6-1.77.25-.45.54-.81.87-1.06.33-.25.68-.43,1.06-.52s.77-.14,1.16-.14c.9,0,1.55.17,1.95.51s.61.78.61,1.33c0,.21-.03.43-.08.66-.07.31-.18.58-.32.81-.14.23-.34.42-.59.57-.25.15-.56.26-.93.34-.37.08-.81.12-1.32.12h-1.77c0,.06-.02.13-.02.2s0,.14,0,.2c0,.46.12.81.36,1.04.23.23.64.34,1.21.34Zm.82-4.99c-.31,0-.58.04-.8.11-.23.07-.43.19-.6.35s-.32.38-.44.65c-.12.27-.23.6-.32,1h1.58c.32,0,.58-.01.79-.04s.38-.07.51-.14c.13-.06.23-.15.31-.26.07-.11.13-.24.18-.4.05-.17.08-.34.08-.49,0-.25-.09-.45-.29-.59-.19-.13-.52-.2-1-.2Z"></path><path class="cls-1" d="m301.16,75.21h-1.25c-.76,0-1.31-.16-1.65-.48s-.5-.76-.5-1.34c0-.13,0-.26.03-.4.02-.14.04-.29.07-.44l1.2-6.16,1.43-.15-.37,1.92h2.32l-.45,1.19h-2.1l-.65,3.37c-.05.25-.07.45-.07.59,0,.27.07.47.21.58.14.11.38.17.72.17h1.51l-.44,1.16Z"></path><path class="cls-1" d="m307.74,74.39c-.4.38-.99.57-1.77.57s-1.42-.18-1.87-.54-.67-.89-.67-1.6c0-.08,0-.19.02-.33.01-.14.03-.28.06-.42l.75-3.91h1.4l-.75,3.91c-.04.25-.07.46-.07.6,0,.41.11.69.33.86.22.17.55.25.99.25.33,0,.61-.03.84-.08.23-.05.42-.14.58-.26s.28-.3.37-.52c.1-.22.18-.51.24-.85l.75-3.9h1.4l-1.23,6.34c-.11.55-.25,1.03-.43,1.42-.18.39-.41.72-.69.97-.28.25-.62.44-1.02.55-.39.12-.86.18-1.38.18h-1.32c-.2,0-.39,0-.59,0-.2,0-.42-.01-.67-.02l.46-1.21c.33.02.66.03,1.01.04.34,0,.71.01,1.1.01.61,0,1.07-.13,1.38-.4s.55-.74.7-1.41l.05-.23Z"></path><path class="cls-1" d="m313.22,71.47c-.05.25-.08.48-.11.69-.03.2-.04.39-.04.55,0,.54.13.9.4,1.08.27.18.68.27,1.25.27h.71c.13,0,.27,0,.44,0,.17,0,.36-.01.59-.02l-.45,1.17c-.09,0-.2,0-.31,0-.12,0-.23,0-.35.01-.11,0-.22,0-.33,0h-.27c-.56,0-1.04-.06-1.43-.17-.39-.11-.71-.26-.95-.47-.25-.21-.42-.46-.53-.76-.11-.31-.16-.66-.16-1.06,0-.2.01-.41.04-.63.03-.22.06-.46.11-.7.14-.68.32-1.24.55-1.67.23-.43.51-.77.84-1.02.34-.25.73-.41,1.19-.5.46-.09.98-.13,1.58-.13.21,0,.44,0,.69,0s.47.01.65.02l-.45,1.17c-.15-.01-.32-.02-.52-.02-.21,0-.39,0-.56,0-.42,0-.77.03-1.05.09s-.52.17-.71.33c-.19.16-.35.38-.46.66-.12.28-.22.65-.32,1.09Z"></path><path class="cls-1" d="m319.34,68.16h5.28l-.14,1.04-4.63,4.83h4.1l-.45,1.19h-5.55l.14-1.04,4.63-4.83h-3.83l.45-1.19Z"></path><path class="cls-1" d="m325.6,75.21l.89-4.57c.09-.5.23-.92.41-1.26.19-.34.42-.62.7-.83s.62-.37,1-.46c.38-.1.83-.15,1.34-.15.84,0,1.51.18,2,.55s.73.91.73,1.65c0,.1,0,.21-.02.33-.01.12-.03.24-.05.37l-.84,4.37h-1.4l.84-4.37c.02-.11.03-.22.05-.32.01-.1.02-.19.02-.26,0-.41-.12-.7-.35-.87-.23-.17-.56-.25-1-.25-.34,0-.62.03-.86.08s-.43.14-.59.26-.28.3-.38.52c-.1.22-.18.51-.24.85l-.85,4.36h-1.4Z"></path><path class="cls-1" d="m337.38,74.06h.7c.2,0,.38,0,.55-.01.17-.01.35-.02.52-.02.17,0,.36-.02.57-.04l-.45,1.17c-.31.03-.61.05-.91.05-.3.01-.67.02-1.1.02-.54,0-.98-.06-1.34-.19-.36-.12-.65-.3-.87-.52-.22-.22-.38-.49-.47-.79-.1-.3-.14-.64-.14-1,0-.39.05-.83.15-1.31.15-.73.35-1.32.6-1.77.25-.45.54-.81.87-1.06.33-.25.68-.43,1.06-.52s.77-.14,1.16-.14c.9,0,1.55.17,1.95.51s.61.78.61,1.33c0,.21-.03.43-.08.66-.07.31-.18.58-.32.81-.14.23-.34.42-.59.57-.25.15-.56.26-.93.34-.37.08-.81.12-1.32.12h-1.77c0,.06-.02.13-.02.2s0,.14,0,.2c0,.46.12.81.36,1.04.23.23.64.34,1.21.34Zm.82-4.99c-.31,0-.58.04-.8.11-.23.07-.43.19-.6.35s-.32.38-.44.65c-.12.27-.23.6-.32,1h1.58c.32,0,.58-.01.79-.04s.38-.07.51-.14c.13-.06.23-.15.31-.26.07-.11.13-.24.18-.4.05-.17.08-.34.08-.49,0-.25-.09-.45-.29-.59-.19-.13-.52-.2-1-.2Z"></path><path class="cls-1" d="m339.83,76.4c.11.01.21.02.29.02h.27c.24,0,.45-.02.62-.07.17-.05.31-.13.42-.25.11-.12.21-.29.29-.49s.15-.47.21-.78l1.28-6.67h1.4l-1.32,6.86c-.1.52-.24.94-.41,1.28s-.38.6-.62.8c-.24.19-.51.33-.82.4-.31.07-.65.11-1.04.11h-.61c-.15,0-.28,0-.41-.02l.45-1.19Zm4.27-9.43c-.51,0-.76-.23-.76-.68,0-.41.1-.69.3-.84.2-.15.45-.22.74-.22.22,0,.4.05.54.14.15.09.22.27.22.54,0,.37-.09.64-.25.81s-.43.25-.78.25Z"></path></g></svg> 